<svg width="40" height="45" viewBox="0 0 40 45" fill="none" xmlns="http://www.w3.org/2000/svg">
<path fill-rule="evenodd" clip-rule="evenodd" d="M10.809 34.7517C17.654 33.6521 22.367 33.7467 29.221 34.7902C29.7174 34.8693 30.1709 35.1433 30.4979 35.5614C30.8249 35.9796 31.0033 36.5137 31 37.0652C31 37.593 30.835 38.1054 30.537 38.5057C30.0176 39.2035 29.4855 39.8898 28.941 40.5641H31.582C31.748 40.3464 31.915 40.1243 32.084 39.8989C32.6772 39.099 33.0007 38.0984 33 37.0663C33 34.8397 31.522 32.9209 29.495 32.613C22.479 31.5453 17.575 31.4431 10.52 32.5767C8.472 32.9055 7 34.854 7 37.096C7 38.0911 7.295 39.0753 7.854 39.8725C8.019 40.1078 8.182 40.3387 8.344 40.5652H10.921C10.4144 39.8983 9.92032 39.2201 9.439 38.531C9.15296 38.1184 8.99866 37.6137 9 37.0949C9 35.9107 9.774 34.9177 10.809 34.7517Z" fill="white"/>
<path fill-rule="evenodd" clip-rule="evenodd" d="M20 24.0709C20.7879 24.0709 21.5681 23.9003 22.2961 23.5687C23.0241 23.2372 23.6855 22.7512 24.2426 22.1386C24.7998 21.5259 25.2417 20.7986 25.5433 19.9982C25.8448 19.1977 26 18.3398 26 17.4734C26 16.607 25.8448 15.7491 25.5433 14.9487C25.2417 14.1482 24.7998 13.4209 24.2426 12.8083C23.6855 12.1957 23.0241 11.7097 22.2961 11.3781C21.5681 11.0466 20.7879 10.8759 20 10.8759C18.4087 10.8759 16.8826 11.571 15.7574 12.8083C14.6321 14.0456 14 15.7237 14 17.4734C14 19.2232 14.6321 20.9013 15.7574 22.1386C16.8826 23.3758 18.4087 24.0709 20 24.0709ZM20 26.2701C22.1217 26.2701 24.1566 25.3433 25.6569 23.6936C27.1571 22.0439 28 19.8064 28 17.4734C28 15.1404 27.1571 12.9029 25.6569 11.2532C24.1566 9.60355 22.1217 8.67676 20 8.67676C17.8783 8.67676 15.8434 9.60355 14.3431 11.2532C12.8429 12.9029 12 15.1404 12 17.4734C12 19.8064 12.8429 22.0439 14.3431 23.6936C15.8434 25.3433 17.8783 26.2701 20 26.2701Z" fill="white"/>
<path fill-rule="evenodd" clip-rule="evenodd" d="M20 42.7636C29.941 42.7636 38 33.9021 38 22.9711C38 12.0402 29.941 3.17866 20 3.17866C10.059 3.17866 2 12.0402 2 22.9711C2 33.9021 10.059 42.7636 20 42.7636ZM20 44.9628C31.046 44.9628 40 35.1171 40 22.9711C40 10.8252 31.046 0.979492 20 0.979492C8.954 0.979492 0 10.8252 0 22.9711C0 35.1171 8.954 44.9628 20 44.9628Z" fill="white"/>
</svg>
